<svg width="310" height="310" viewBox="0 0 310 310" fill="none" xmlns="http://www.w3.org/2000/svg">
<rect width="310" height="310" rx="155" fill="url(#paint0_linear_379_4)"/>
<path d="M147.218 240.15C136.485 240.303 127.591 238.693 120.538 235.32C113.485 231.793 107.965 226.503 103.978 219.45C99.9915 212.397 97.1548 203.427 95.4682 192.54C93.7815 181.653 92.9382 168.773 92.9382 153.9C92.9382 139.64 93.7815 127.143 95.4682 116.41C97.3082 105.677 100.375 96.7833 104.668 89.73C108.961 82.5233 114.788 77.1567 122.148 73.63C129.661 70.1033 139.015 68.34 150.208 68.34C156.188 68.34 162.398 68.57 168.838 69.03C175.278 69.49 181.565 70.18 187.698 71.1C193.832 72.02 199.505 73.0933 204.718 74.32V88.12C201.652 87.66 197.358 87.2 191.838 86.74C186.318 86.1267 180.108 85.6667 173.208 85.36C166.462 85.0533 159.715 84.9 152.968 84.9C141.928 84.9 133.341 87.2 127.208 91.8C121.228 96.2467 117.012 103.607 114.558 113.88C112.258 124 111.108 137.417 111.108 154.13C111.108 167.623 111.722 178.817 112.948 187.71C114.328 196.603 116.551 203.657 119.618 208.87C122.685 214.083 126.825 217.84 132.038 220.14C137.405 222.287 144.151 223.36 152.278 223.36C159.485 223.36 166.922 222.44 174.588 220.6C182.255 218.76 188.772 216.767 194.138 214.62V164.71H153.198V151.14C156.111 150.68 159.638 150.297 163.778 149.99C167.918 149.683 172.288 149.453 176.888 149.3C181.642 148.993 186.395 148.84 191.148 148.84C195.135 148.84 198.892 148.917 202.418 149.07C205.945 149.07 209.012 149.3 211.618 149.76V239H198.278L195.518 227.04C189.998 229.8 182.945 232.637 174.358 235.55C165.925 238.463 156.878 239.997 147.218 240.15Z" fill="white"/>
<defs>
<linearGradient id="paint0_linear_379_4" x1="270.733" y1="49.9444" x2="42.7111" y2="272.111" gradientUnits="userSpaceOnUse">
<stop stop-color="#3666A1"/>
<stop offset="1" stop-color="#3773E0"/>
</linearGradient>
</defs>
</svg>
